<svg id="visual" viewBox="0 0 960 540" width="960" height="540" xmlns="http://www.w3.org/2000/svg" xmlns:xlink="http://www.w3.org/1999/xlink" version="1.1"><path d="M657 540L651.8 527.2C646.7 514.3 636.3 488.7 629.2 463C622 437.3 618 411.7 645.8 386C673.7 360.3 733.3 334.7 757.7 308.8C782 283 771 257 750 231.2C729 205.3 698 179.7 676.8 154C655.7 128.3 644.3 102.7 645.8 77C647.3 51.3 661.7 25.7 668.8 12.8L676 0L960 0L960 12.8C960 25.7 960 51.3 960 77C960 102.7 960 128.3 960 154C960 179.7 960 205.3 960 231.2C960 257 960 283 960 308.8C960 334.7 960 360.3 960 386C960 411.7 960 437.3 960 463C960 488.7 960 514.3 960 527.2L960 540Z" fill="#232c3a" stroke-linecap="round" stroke-linejoin="miter"></path></svg>