<svg id="visual" viewBox="0 0 1920 1080" width="1920" height="1080" xmlns="http://www.w3.org/2000/svg" xmlns:xlink="http://www.w3.org/1999/xlink" version="1.1"><path d="M0 736L45.7 730.3C91.3 724.7 182.7 713.3 274.2 705.5C365.7 697.7 457.3 693.3 548.8 724.7C640.3 756 731.7 823 823 850.3C914.3 877.7 1005.7 865.3 1097 841.8C1188.3 818.3 1279.7 783.7 1371.2 759.8C1462.7 736 1554.3 723 1645.8 724.5C1737.3 726 1828.7 742 1874.3 750L1920 758L1920 1081L1874.3 1081C1828.7 1081 1737.3 1081 1645.8 1081C1554.3 1081 1462.7 1081 1371.2 1081C1279.7 1081 1188.3 1081 1097 1081C1005.7 1081 914.3 1081 823 1081C731.7 1081 640.3 1081 548.8 1081C457.3 1081 365.7 1081 274.2 1081C182.7 1081 91.3 1081 45.7 1081L0 1081Z" fill="#172439" stroke-linecap="round" stroke-linejoin="miter"></path></svg>